<svg width="92" height="37" viewBox="0 0 92 37" fill="none" xmlns="http://www.w3.org/2000/svg">
<path d="M48.4873 30H82C87.5229 30 92 25.5228 92 20V10C92 4.47715 87.5229 0 82 0H10C4.47715 0 1.61069e-07 4.47715 0 10V20C0 25.5228 4.47715 30 10 30H39.0869L43.7871 37L48.4873 30Z" fill="url(#paint0_linear_1841_2049)"/>
<path d="M17.3887 21.1367C16.7142 21.1367 16.1081 21.0228 15.5703 20.7949C15.0371 20.5671 14.6156 20.248 14.3057 19.8379C14.0003 19.4232 13.8385 18.9492 13.8203 18.416H15.3516C15.3698 18.6986 15.4678 18.9492 15.6455 19.168C15.8278 19.3822 16.0693 19.5485 16.3701 19.667C16.6709 19.7809 17.0059 19.8379 17.375 19.8379C17.7715 19.8379 18.1247 19.7718 18.4346 19.6396C18.749 19.5029 18.9951 19.3115 19.1729 19.0654C19.3506 18.8193 19.4395 18.5391 19.4395 18.2246C19.4395 17.8965 19.3506 17.6071 19.1729 17.3564C18.9997 17.1012 18.7445 16.903 18.4072 16.7617C18.07 16.6159 17.6712 16.543 17.2109 16.543H16.3633V15.3125H17.2109C17.5846 15.3125 17.915 15.2487 18.2021 15.1211C18.4938 14.9889 18.7194 14.8044 18.8789 14.5674C19.043 14.3304 19.125 14.0547 19.125 13.7402C19.125 13.4395 19.0544 13.1751 18.9131 12.9473C18.7718 12.7194 18.5713 12.5417 18.3115 12.4141C18.0518 12.2865 17.7487 12.2227 17.4023 12.2227C17.0697 12.2227 16.7575 12.2819 16.4658 12.4004C16.1787 12.5189 15.9463 12.6898 15.7686 12.9131C15.5908 13.1318 15.4974 13.3848 15.4883 13.6719H14.0391C14.0527 13.1478 14.21 12.6807 14.5107 12.2705C14.8161 11.8558 15.224 11.5345 15.7344 11.3066C16.2448 11.0788 16.8053 10.9648 17.416 10.9648C18.0495 10.9648 18.6055 11.0856 19.084 11.3271C19.5625 11.5687 19.9316 11.8968 20.1914 12.3115C20.4512 12.7217 20.5788 13.1706 20.5742 13.6582C20.5788 14.2142 20.4238 14.6859 20.1094 15.0732C19.7949 15.4606 19.3665 15.7227 18.8242 15.8594V15.9277C19.2708 15.9915 19.6536 16.1305 19.9727 16.3447C20.2962 16.5544 20.54 16.8255 20.7041 17.1582C20.8727 17.4909 20.957 17.8646 20.957 18.2793C20.957 18.8216 20.8021 19.3115 20.4922 19.749C20.1868 20.182 19.7607 20.5215 19.2139 20.7676C18.6715 21.0137 18.0632 21.1367 17.3887 21.1367ZM26.4258 11.2383C26.4258 11.7715 26.5443 12.2773 26.7812 12.7559C27.0182 13.2298 27.36 13.6468 27.8066 14.0068C28.2578 14.3669 28.7865 14.638 29.3926 14.8203L28.7227 15.832C28.0436 15.6087 27.4557 15.2806 26.959 14.8477C26.4622 14.4102 26.0794 13.8952 25.8105 13.3027C25.5417 13.9818 25.1429 14.5697 24.6143 15.0664C24.0902 15.5632 23.4635 15.9368 22.7344 16.1875L22.0918 15.1484C22.7207 14.9434 23.263 14.6471 23.7188 14.2598C24.179 13.8678 24.5299 13.4144 24.7715 12.8994C25.0176 12.3799 25.1406 11.8262 25.1406 11.2383V10.3359H26.4258V11.2383ZM23.8965 16.8027H31.8125V19.8379H25.1953V21H32.2363V22.0391H23.9238V18.8809H30.5273V17.8281H23.8965V16.8027ZM30.5137 9.91211H31.8125V12.4961H33.5898V13.5762H31.8125V16.2832H30.5137V9.91211ZM41.0273 10.8281C41.5788 10.8281 42.0755 10.9785 42.5176 11.2793C42.9596 11.5801 43.3174 12.0062 43.5908 12.5576C43.8688 13.109 44.0397 13.7585 44.1035 14.5059H46.6328V9.91211H47.918V22.1895H46.6328V15.5586H44.1172C44.0716 16.347 43.9121 17.0329 43.6387 17.6162C43.3652 18.1995 43.0029 18.6484 42.5518 18.9629C42.1006 19.2728 41.5924 19.4277 41.0273 19.4277C40.4212 19.4277 39.8812 19.2523 39.4072 18.9014C38.9378 18.5505 38.571 18.0492 38.3066 17.3975C38.0469 16.7458 37.9193 15.987 37.9238 15.1211C37.9193 14.2643 38.0469 13.5124 38.3066 12.8652C38.571 12.2135 38.9378 11.7122 39.4072 11.3613C39.8812 11.0059 40.4212 10.8281 41.0273 10.8281ZM39.1543 15.1211C39.1543 15.7591 39.2318 16.3151 39.3867 16.7891C39.5462 17.263 39.7673 17.6276 40.0498 17.8828C40.3324 18.138 40.6582 18.2656 41.0273 18.2656C41.3965 18.2656 41.7223 18.138 42.0049 17.8828C42.2874 17.6276 42.5062 17.263 42.6611 16.7891C42.8206 16.3151 42.9004 15.7591 42.9004 15.1211C42.9004 14.4922 42.8206 13.943 42.6611 13.4736C42.5016 12.9997 42.2806 12.6351 41.998 12.3799C41.7201 12.1201 41.3965 11.9902 41.0273 11.9902C40.6582 11.9902 40.3324 12.1201 40.0498 12.3799C39.7718 12.6351 39.5531 12.9997 39.3936 13.4736C39.234 13.943 39.1543 14.4922 39.1543 15.1211ZM59.9629 17.1855H58.6641V9.92578H59.9629V17.1855ZM50.4199 10.6504H56.0527V14.0957H51.7188V15.5723C52.8809 15.5723 53.8812 15.5472 54.7197 15.4971C55.5583 15.4469 56.4173 15.349 57.2969 15.2031L57.4609 16.2695C56.5449 16.4108 55.654 16.5088 54.7881 16.5635C53.9222 16.6136 52.9173 16.6387 51.7734 16.6387H51.4727H50.4473V13.084H54.7676V11.6895H50.4199V10.6504ZM51.9102 17.8008H59.9629V22.0117H51.9102V17.8008ZM58.6914 20.959V18.8398H53.1953V20.959H58.6914Z" fill="white"/>
<path d="M63 23.12H79V7.12H63V23.12Z" fill="white"/>
<defs>
<linearGradient id="paint0_linear_1841_2049" x1="43.5" y1="37" x2="43.5" y2="3" gradientUnits="userSpaceOnUse">
<stop stop-color="#3191D0"/>
<stop offset="1" stop-color="#A0D9FE"/>
</linearGradient>
</defs>
</svg>
