<svg width="10" height="18" viewBox="0 0 10 18" fill="none" xmlns="http://www.w3.org/2000/svg">
<path d="M7.98593 0.206385L0.212927 8.18038C0.0764058 8.32045 0 8.5083 0 8.70389C0 8.89947 0.0764058 9.08732 0.212927 9.22738L7.98593 17.2044C8.04952 17.2697 8.12555 17.3216 8.20954 17.3571C8.29353 17.3925 8.38377 17.4108 8.47493 17.4108C8.56609 17.4108 8.65632 17.3925 8.74031 17.3571C8.8243 17.3216 8.90033 17.2697 8.96393 17.2044C9.09477 17.0704 9.16802 16.8906 9.16802 16.7034C9.16802 16.5161 9.09477 16.3363 8.96393 16.2024L1.65443 8.70389L8.96393 1.20688C9.09432 1.07301 9.16729 0.893517 9.16729 0.706635C9.16729 0.519753 9.09432 0.340257 8.96393 0.206385C8.90033 0.14107 8.8243 0.0891567 8.74031 0.0537096C8.65632 0.0182625 8.56609 0 8.47493 0C8.38377 0 8.29353 0.0182625 8.20954 0.0537096C8.12555 0.0891567 8.04952 0.14107 7.98593 0.206385Z" fill="black"/>
</svg>
