<svg width="19" height="21" viewBox="0 0 19 21" fill="none" xmlns="http://www.w3.org/2000/svg">
<path d="M15.651 8.00033V11.6403C15.651 12.2026 15.809 12.7535 16.107 13.2303L17.197 14.9703C17.2917 15.1218 17.344 15.2958 17.3487 15.4743C17.3533 15.6529 17.3101 15.8294 17.2234 15.9855C17.1368 16.1417 17.0099 16.2718 16.8559 16.3623C16.702 16.4529 16.5266 16.5005 16.348 16.5003H2C1.8215 16.5003 1.64625 16.4526 1.49244 16.362C1.33864 16.2714 1.21189 16.1412 1.12536 15.9851C1.03882 15.829 0.995659 15.6525 1.00034 15.4741C1.00503 15.2956 1.05739 15.1217 1.152 14.9703L2.24 13.2303C2.53835 12.7536 2.6967 12.2027 2.697 11.6403V7.47633C2.69711 6.40745 2.96175 5.3552 3.46733 4.41344C3.9729 3.47168 4.70369 2.66968 5.59451 2.07897C6.48534 1.48825 7.50851 1.12718 8.57278 1.02797C9.63705 0.928748 10.7093 1.09446 11.694 1.51033" stroke="black" stroke-width="2" stroke-linecap="round" stroke-linejoin="round"/>
<path d="M7.17383 19.5H11.1738" stroke="black" stroke-width="2" stroke-linecap="round"/>
<path d="M15.6738 6.25C17.0545 6.25 18.1738 5.13071 18.1738 3.75C18.1738 2.36929 17.0545 1.25 15.6738 1.25C14.2931 1.25 13.1738 2.36929 13.1738 3.75C13.1738 5.13071 14.2931 6.25 15.6738 6.25Z" fill="#4889FF"/>
</svg>
