<svg width="338" height="85" viewBox="0 0 338 85" fill="none" xmlns="http://www.w3.org/2000/svg">
<path d="M4.12891 3.10156V13H3.14453V4.11328H3.08984L0.751953 5.6582V4.66016L3.11719 3.10156H4.12891ZM9.93945 13.1367C8.20312 13.1367 6.9043 12.043 6.86328 10.5117H7.80664C7.86133 11.5234 8.76367 12.2754 9.93945 12.2754C11.3203 12.2754 12.3184 11.2363 12.3047 9.88281C12.3047 8.46094 11.252 7.47656 9.87109 7.46289C9.03711 7.46289 8.35352 7.73633 7.95703 8.37891H6.98633L7.66992 3.10156H12.8242V3.97656H8.49023L8.06641 7.24414H8.14844C8.58594 6.83398 9.29688 6.58789 10.0352 6.58789C11.8535 6.58789 13.2617 7.94141 13.2617 9.86914C13.2617 11.7559 11.8672 13.1367 9.93945 13.1367ZM18.1699 13.1367C16.0508 13.1367 14.8203 11.2637 14.8203 8.05078C14.8203 4.85156 16.0645 2.96484 18.1699 2.96484C20.2617 2.96484 21.5059 4.85156 21.5059 8.05078C21.5059 11.2637 20.2754 13.1367 18.1699 13.1367ZM18.1699 12.2617C19.6738 12.2617 20.5625 10.7305 20.5625 8.05078C20.5625 5.37109 19.6602 3.82617 18.1699 3.82617C16.666 3.82617 15.7773 5.37109 15.7773 8.05078C15.7773 10.7305 16.666 12.2617 18.1699 12.2617Z" fill="black"/>
<line x1="31" y1="8.5" x2="338" y2="8.5" stroke="#D1D1D1"/>
<path d="M4.12891 37.1016V47H3.14453V38.1133H3.08984L0.751953 39.6582V38.6602L3.11719 37.1016H4.12891ZM6.64453 44.8945V44.1016L11.1562 37.1016H12.332V44.0332H13.6855V44.8945H12.332V47H11.4023V44.8945H6.64453ZM7.72461 44.0332H11.4023V38.4004H11.3066L7.72461 43.9648V44.0332ZM18.5117 47.1367C16.3926 47.1367 15.1621 45.2637 15.1621 42.0508C15.1621 38.8516 16.4062 36.9648 18.5117 36.9648C20.6035 36.9648 21.8477 38.8516 21.8477 42.0508C21.8477 45.2637 20.6172 47.1367 18.5117 47.1367ZM18.5117 46.2617C20.0156 46.2617 20.9043 44.7305 20.9043 42.0508C20.9043 39.3711 20.002 37.8262 18.5117 37.8262C17.0078 37.8262 16.1191 39.3711 16.1191 42.0508C16.1191 44.7305 17.0078 46.2617 18.5117 46.2617Z" fill="black"/>
<line x1="31" y1="42.5" x2="338" y2="42.5" stroke="#D1D1D1"/>
<path d="M4.12891 71.1016V81H3.14453V72.1133H3.08984L0.751953 73.6582V72.6602L3.11719 71.1016H4.12891ZM10.1992 81.1367C8.29883 81.1367 6.91797 80.0703 6.86328 78.5117H7.84766C7.90234 79.5645 8.91406 80.2617 10.1855 80.2617C11.5801 80.2617 12.5645 79.4551 12.5781 78.334C12.5645 77.1719 11.5938 76.3516 9.99414 76.3516H9.37891V75.4766H9.99414C11.293 75.4766 12.2227 74.752 12.2363 73.6309C12.2227 72.5645 11.4297 71.8262 10.2129 71.8262C9.05078 71.8262 8.06641 72.5098 8.03906 73.5762H7.0957C7.13672 72.0312 8.50391 70.9648 10.2266 70.9648C12.0312 70.9648 13.1797 72.1543 13.166 73.5898C13.1797 74.7246 12.4961 75.5586 11.4297 75.8594V75.9277C12.7285 76.1602 13.5352 77.0762 13.5215 78.3477C13.5352 79.9473 12.1133 81.1367 10.1992 81.1367ZM18.5117 81.1367C16.3926 81.1367 15.1621 79.2637 15.1621 76.0508C15.1621 72.8516 16.4062 70.9648 18.5117 70.9648C20.6035 70.9648 21.8477 72.8516 21.8477 76.0508C21.8477 79.2637 20.6172 81.1367 18.5117 81.1367ZM18.5117 80.2617C20.0156 80.2617 20.9043 78.7305 20.9043 76.0508C20.9043 73.3711 20.002 71.8262 18.5117 71.8262C17.0078 71.8262 16.1191 73.3711 16.1191 76.0508C16.1191 78.7305 17.0078 80.2617 18.5117 80.2617Z" fill="black"/>
<line x1="31" y1="76.5" x2="338" y2="76.5" stroke="#D1D1D1"/>
<circle cx="45.25" cy="42" r="4" fill="#F05D60"/>
<circle cx="113.25" cy="46" r="4" fill="#F05D60"/>
<circle cx="183.25" cy="23" r="4" fill="#F05D60"/>
<circle cx="253.25" cy="27" r="4" fill="#F05D60"/>
<circle cx="320.25" cy="27" r="4" fill="#F05D60"/>
<line x1="45.5147" y1="41.6682" x2="113.515" y2="45.6682" stroke="#F05D60" stroke-width="0.5"/>
<line x1="113.422" y1="45.6802" x2="183.422" y2="22.6802" stroke="#F05D60" stroke-width="0.5"/>
<line x1="183.514" y1="22.6681" x2="253.514" y2="26.6681" stroke="#F05D60" stroke-width="0.5"/>
<line x1="253.5" y1="26.6677" x2="320.5" y2="26.6677" stroke="#F05D60" stroke-width="0.5"/>
</svg>
