<svg width="25" height="21" viewBox="0 0 25 21" fill="none" xmlns="http://www.w3.org/2000/svg">
<path d="M2.5 2.33333H6.25L8.75 0H16.25L18.75 2.33333H22.5C23.163 2.33333 23.7989 2.57917 24.2678 3.01675C24.7366 3.45434 25 4.04783 25 4.66667V18.6667C25 19.2855 24.7366 19.879 24.2678 20.3166C23.7989 20.7542 23.163 21 22.5 21H2.5C1.83696 21 1.20107 20.7542 0.732233 20.3166C0.263392 19.879 0 19.2855 0 18.6667V4.66667C0 4.04783 0.263392 3.45434 0.732233 3.01675C1.20107 2.57917 1.83696 2.33333 2.5 2.33333ZM12.5 5.83333C10.8424 5.83333 9.25268 6.44791 8.08058 7.54188C6.90848 8.63584 6.25 10.1196 6.25 11.6667C6.25 13.2138 6.90848 14.6975 8.08058 15.7915C9.25268 16.8854 10.8424 17.5 12.5 17.5C14.1576 17.5 15.7473 16.8854 16.9194 15.7915C18.0915 14.6975 18.75 13.2138 18.75 11.6667C18.75 10.1196 18.0915 8.63584 16.9194 7.54188C15.7473 6.44791 14.1576 5.83333 12.5 5.83333ZM12.5 8.16667C13.4946 8.16667 14.4484 8.53541 15.1517 9.19179C15.8549 9.84817 16.25 10.7384 16.25 11.6667C16.25 12.5949 15.8549 13.4852 15.1517 14.1415C14.4484 14.7979 13.4946 15.1667 12.5 15.1667C11.5054 15.1667 10.5516 14.7979 9.84835 14.1415C9.14509 13.4852 8.75 12.5949 8.75 11.6667C8.75 10.7384 9.14509 9.84817 9.84835 9.19179C10.5516 8.53541 11.5054 8.16667 12.5 8.16667Z" fill="black"/>
</svg>
