<svg width="25" height="25" viewBox="0 0 25 25" fill="none" xmlns="http://www.w3.org/2000/svg">
<path fill-rule="evenodd" clip-rule="evenodd" d="M0 12.5C0 19.4037 5.59625 25 12.5 25C14.5 25 16.39 24.53 18.065 23.695C18.5073 23.4659 19.0183 23.4067 19.5012 23.5287L22.2837 24.2738C22.5591 24.3472 22.849 24.347 23.1243 24.273C23.3996 24.1991 23.6506 24.054 23.8521 23.8524C24.0536 23.6507 24.1985 23.3997 24.2723 23.1243C24.3461 22.849 24.3461 22.5591 24.2725 22.2837L23.5287 19.5012C23.4074 19.0185 23.467 18.5081 23.6962 18.0662C24.5567 16.3371 25.003 14.4314 25 12.5C25 5.59625 19.4037 0 12.5 0C5.59625 0 0 5.59625 0 12.5ZM18.125 11.385C18.125 13.0962 16.4762 14.8912 14.9637 16.1775C13.935 17.0525 13.42 17.4912 12.5 17.4912C11.58 17.4912 11.065 17.0537 10.0362 16.1775C8.52375 14.89 6.875 13.0962 6.875 11.385C6.875 8.03875 9.96874 6.79 12.5 9.375C15.0312 6.79 18.125 8.03875 18.125 11.385Z" fill="#ABABAB"/>
</svg>
