<svg width="178" height="178" viewBox="0 0 178 178" fill="none" xmlns="http://www.w3.org/2000/svg">
<path d="M177.578 89C177.578 137.921 137.921 177.578 89 177.578C40.0794 177.578 0.421509 137.921 0.421509 89C0.421509 40.0794 40.0794 0.421509 89 0.421509C137.921 0.421509 177.578 40.0794 177.578 89ZM17.2514 89C17.2514 128.626 49.3743 160.749 89 160.749C128.626 160.749 160.749 128.626 160.749 89C160.749 49.3743 128.626 17.2514 89 17.2514C49.3743 17.2514 17.2514 49.3743 17.2514 89Z" fill="#F9F9F9"/>
<path d="M88.6176 8.83752C88.5954 4.19012 92.3531 0.363194 96.9817 0.781964C109.214 1.88866 121.114 5.53048 131.912 11.5102C145.171 18.8524 156.324 29.4738 164.304 42.3583C172.284 55.2427 176.825 69.9593 177.493 85.1004C178.16 100.241 174.931 115.3 168.115 128.837C161.299 142.373 151.124 153.935 138.562 162.415C126.001 170.895 111.474 176.01 96.3709 177.271C81.2677 178.533 66.0936 175.897 52.2999 169.618C41.066 164.504 31.0538 157.112 22.8808 147.944C19.7882 144.475 20.625 139.177 24.3718 136.428V136.428C28.1186 133.678 33.3515 134.527 36.5207 137.926C42.9357 144.807 50.6612 150.38 59.2729 154.301C70.4458 159.387 82.7369 161.521 94.9704 160.5C107.204 159.478 118.971 155.335 129.145 148.466C139.32 141.597 147.562 132.233 153.083 121.268C158.604 110.303 161.219 98.1056 160.679 85.8413C160.139 73.5771 156.46 61.6566 149.996 51.2202C143.532 40.7838 134.498 32.1805 123.759 26.2333C115.481 21.6493 106.404 18.7615 97.0558 17.7052C92.4378 17.1834 88.6398 13.4849 88.6176 8.83752V8.83752Z" fill="#93CDDD"/>
</svg>
