<svg width="136" height="34" viewBox="0 0 136 34" fill="none" xmlns="http://www.w3.org/2000/svg">
<path d="M102.241 6.63379H126C131.523 6.63379 136 11.1111 136 16.6338V24C136 29.5228 131.523 34 126 34H10C4.47715 34 0 29.5228 0 24V16.6338C0.000195139 11.1111 4.47727 6.63379 10 6.63379H93.333L97.7871 0L102.241 6.63379Z" fill="#F0F4FF" fill-opacity="0.941176"/>
<path d="M17.0312 17.168C17.0273 17.7812 17.1367 18.3887 17.3594 18.9902C17.582 19.5918 17.8945 20.1309 18.2969 20.6074C18.6992 21.0801 19.1562 21.4414 19.668 21.6914L18.9766 22.582C18.4141 22.2852 17.916 21.8613 17.4824 21.3105C17.0527 20.7559 16.7207 20.123 16.4863 19.4121C16.248 20.1699 15.9043 20.8457 15.4551 21.4395C15.0098 22.0293 14.4922 22.4766 13.9023 22.7812L13.2109 21.8789C13.7383 21.625 14.207 21.25 14.6172 20.7539C15.0273 20.2578 15.3457 19.6953 15.5723 19.0664C15.8027 18.4375 15.918 17.8047 15.918 17.168V15.375H17.0312V17.168ZM20.4531 14.4961H21.5664V18.6797H23.2539V19.6289H21.5664V24.9961H20.4531V14.4961ZM27.6484 16.6875C27.6484 17.1406 27.7539 17.5762 27.9648 17.9941C28.1797 18.4121 28.4844 18.7832 28.8789 19.1074C29.2773 19.4277 29.7422 19.6719 30.2734 19.8398L29.6992 20.707C29.1016 20.5117 28.5801 20.2168 28.1348 19.8223C27.6895 19.4277 27.3457 18.9648 27.1035 18.4336C26.8652 19.0117 26.5176 19.5156 26.0605 19.9453C25.6035 20.375 25.0664 20.6992 24.4492 20.918L23.875 20.0391C24.4102 19.8555 24.877 19.5938 25.2754 19.2539C25.6738 18.9102 25.9805 18.5156 26.1953 18.0703C26.4141 17.625 26.5234 17.1641 26.5234 16.6875V16.2305H24.168V15.3281H29.957V16.2305H27.6484V16.6875ZM25.5977 21.4453H26.7227V23.8711H32.7812V24.7734H25.5977V21.4453ZM31.3516 14.5078H32.4648V22.1719H31.3516V14.5078ZM38.9102 15.1289C39.6406 15.1289 40.3008 15.252 40.8906 15.498C41.4805 15.7402 41.9434 16.084 42.2793 16.5293C42.6191 16.9707 42.7891 17.4805 42.7891 18.0586C42.7891 18.6367 42.6191 19.1484 42.2793 19.5938C41.9434 20.0391 41.4805 20.3828 40.8906 20.625C40.3008 20.8672 39.6406 20.9883 38.9102 20.9883C38.1797 20.9883 37.5195 20.8672 36.9297 20.625C36.3438 20.3828 35.8828 20.0391 35.5469 19.5938C35.2109 19.1484 35.043 18.6367 35.043 18.0586C35.043 17.4844 35.2109 16.9746 35.5469 16.5293C35.8828 16.084 36.3438 15.7402 36.9297 15.498C37.5195 15.252 38.1797 15.1289 38.9102 15.1289ZM34.1289 22.7109H43.7383V23.6367H34.1289V22.7109ZM36.1094 18.0586C36.1094 18.4609 36.2285 18.8145 36.4668 19.1191C36.709 19.4238 37.043 19.6602 37.4688 19.8281C37.8945 19.9922 38.375 20.0742 38.9102 20.0742C39.4453 20.0742 39.9238 19.9922 40.3457 19.8281C40.7715 19.6602 41.1055 19.4238 41.3477 19.1191C41.5898 18.8145 41.7109 18.4609 41.7109 18.0586C41.7109 17.6602 41.5898 17.3066 41.3477 16.998C41.1055 16.6895 40.7715 16.4512 40.3457 16.2832C39.9199 16.1152 39.4414 16.0312 38.9102 16.0312C38.375 16.0312 37.8945 16.1152 37.4688 16.2832C37.043 16.4512 36.709 16.6895 36.4668 16.998C36.2285 17.3066 36.1094 17.6602 36.1094 18.0586ZM54.1094 23.7422H44.5V22.8047H48.7305V20.9648H45.6719V17.625H51.8359V16.1484H45.6484V15.2344H52.9375V18.5156H46.7734V20.0508H53.1836V20.9648H49.832V22.8047H54.1094V23.7422ZM66.0508 17.6016H67.5742V18.5273H66.0508V22.125H64.9258V14.4961H66.0508V17.6016ZM57.7891 20.0859C58.6055 19.8398 59.3145 19.5254 59.916 19.1426C60.5215 18.7559 61 18.3164 61.3516 17.8242C61.707 17.3281 61.9199 16.793 61.9902 16.2188H58.2344V15.293H63.2031C63.2031 16.1992 63.0059 17.0254 62.6113 17.7715C62.2168 18.5137 61.6484 19.1562 60.9062 19.6992C60.168 20.2383 59.2852 20.6641 58.2578 20.9766L57.7891 20.0859ZM59.3828 21.3398H60.5078V23.8711H66.4844V24.7734H59.3828V21.3398ZM76.9258 22.2891H75.8125V19.3945H74.1719V18.457H75.8125V17.3555H74.1719V16.4414H75.8125V14.4961H76.9258V22.2891ZM69.4609 19.8574V16.2188H68.4766V15.3164H74.0547V16.2188H73.0469V19.7344C73.6016 19.6914 74.0312 19.6523 74.3359 19.6172L74.3828 20.4375C73.4883 20.5781 72.5332 20.6738 71.5176 20.7246C70.502 20.7715 69.4375 20.7969 68.3242 20.8008L68.1836 19.8633L69.4609 19.8574ZM70.082 21.6562H71.207V23.8711H77.1953V24.7734H70.082V21.6562ZM70.5391 19.8398C70.8438 19.832 71.3242 19.8164 71.9805 19.793V16.2188H70.5391V19.8398ZM86.7227 18.75H88.4102V19.6758H86.7227V24.9961H85.6211V14.4961H86.7227V18.75ZM78.4844 16.1367H81.0742V14.6367H82.1875V16.1367H84.707V17.0508H78.4844V16.1367ZM79.0234 20.2617C79.0234 19.793 79.1348 19.373 79.3574 19.002C79.584 18.6309 79.8945 18.3418 80.2891 18.1348C80.6875 17.9277 81.1367 17.8242 81.6367 17.8242C82.1328 17.8242 82.5781 17.9277 82.9727 18.1348C83.3711 18.3418 83.6836 18.6309 83.9102 19.002C84.1367 19.373 84.25 19.793 84.25 20.2617C84.25 20.7344 84.1367 21.1562 83.9102 21.5273C83.6836 21.8984 83.3711 22.1895 82.9727 22.4004C82.5781 22.6074 82.1328 22.7109 81.6367 22.7109C81.1367 22.7109 80.6875 22.6074 80.2891 22.4004C79.8945 22.1895 79.584 21.8984 79.3574 21.5273C79.1348 21.1562 79.0234 20.7344 79.0234 20.2617ZM80.0898 20.2617C80.0898 20.5625 80.1543 20.8281 80.2832 21.0586C80.416 21.2891 80.5996 21.4668 80.834 21.5918C81.0723 21.7168 81.3398 21.7773 81.6367 21.7734C81.9297 21.7773 82.1934 21.7168 82.4277 21.5918C82.6621 21.4668 82.8457 21.2891 82.9785 21.0586C83.1152 20.8281 83.1836 20.5625 83.1836 20.2617C83.1836 19.9688 83.1152 19.707 82.9785 19.4766C82.8457 19.2461 82.6621 19.0664 82.4277 18.9375C82.1934 18.8047 81.9297 18.7383 81.6367 18.7383C81.3398 18.7383 81.0723 18.8047 80.834 18.9375C80.5996 19.0664 80.416 19.2461 80.2832 19.4766C80.1543 19.707 80.0898 19.9688 80.0898 20.2617ZM97.9375 24.9961H96.8828V14.4961H97.9375V24.9961ZM88.8789 21.9609C89.9727 21.3125 90.8027 20.5527 91.3691 19.6816C91.9355 18.8066 92.2676 17.8164 92.3652 16.7109H89.3711V15.7969H93.4727C93.4648 16.875 93.3086 17.8477 93.0039 18.7148H94.668V14.7656H95.7227V24.4805H94.668V19.6055H92.6172C91.9688 20.875 90.9336 21.9258 89.5117 22.7578L88.8789 21.9609ZM111.801 20.3438H102.215V19.4297H111.801V20.3438ZM103.352 23.0742C103.352 22.6719 103.496 22.3281 103.785 22.043C104.074 21.7539 104.492 21.5352 105.039 21.3867C105.586 21.2383 106.238 21.1641 106.996 21.1641C107.75 21.1641 108.396 21.2383 108.936 21.3867C109.479 21.5352 109.895 21.7539 110.184 22.043C110.473 22.3281 110.617 22.6719 110.617 23.0742C110.617 23.4766 110.473 23.8203 110.184 24.1055C109.895 24.3906 109.479 24.6055 108.936 24.75C108.396 24.8984 107.75 24.9727 106.996 24.9727C106.238 24.9727 105.586 24.8984 105.039 24.75C104.492 24.6055 104.074 24.3906 103.785 24.1055C103.496 23.8203 103.352 23.4766 103.352 23.0742ZM103.41 14.8711H110.617V15.7852H104.512V17.6133H110.688V18.5156H103.41V14.8711ZM104.477 23.0742C104.473 23.4102 104.689 23.668 105.127 23.8477C105.564 24.0234 106.188 24.1133 106.996 24.1172C107.793 24.1133 108.41 24.0234 108.848 23.8477C109.285 23.668 109.504 23.4102 109.504 23.0742C109.504 22.7422 109.285 22.4863 108.848 22.3066C108.41 22.123 107.793 22.0273 106.996 22.0195C106.191 22.0273 105.568 22.123 105.127 22.3066C104.689 22.4863 104.473 22.7422 104.477 23.0742ZM122.184 21.1289H112.574V20.2266H116.828V19.2305H113.805V16.5586H119.863V15.6211H113.781V14.7422H120.977V17.3789H114.906V18.3633H121.188V19.2305H117.93V20.2266H122.184V21.1289ZM113.652 21.8672H121.035V24.9141H119.91V22.7578H113.652V21.8672Z" fill="#4889FF"/>
</svg>
