<svg width="27" height="23" viewBox="0 0 27 23" fill="none" xmlns="http://www.w3.org/2000/svg">
<path d="M25.3125 0H1.6875C1.23995 0 0.810725 0.173086 0.494257 0.481182C0.17779 0.789277 0 1.20714 0 1.64286V21.3571C0 21.7929 0.17779 22.2107 0.494257 22.5188C0.810725 22.8269 1.23995 23 1.6875 23H25.3125C25.7601 23 26.1893 22.8269 26.5057 22.5188C26.8222 22.2107 27 21.7929 27 21.3571V1.64286C27 1.20714 26.8222 0.789277 26.5057 0.481182C26.1893 0.173086 25.7601 0 25.3125 0ZM5.83875 3.28571C6.33938 3.28571 6.82877 3.43024 7.24504 3.70102C7.6613 3.9718 7.98574 4.35667 8.17732 4.80696C8.36891 5.25725 8.41903 5.75273 8.32136 6.23076C8.22369 6.70878 7.98262 7.14788 7.62861 7.49251C7.27461 7.83715 6.82359 8.07185 6.33257 8.16693C5.84156 8.26202 5.33261 8.21322 4.87008 8.0267C4.40756 7.84019 4.01223 7.52433 3.73409 7.11908C3.45596 6.71383 3.3075 6.23739 3.3075 5.75C3.3075 5.09643 3.57418 4.46963 4.04889 4.00749C4.52359 3.54534 5.16742 3.28571 5.83875 3.28571ZM3.375 18.8929V15.525L8.4375 10.5307C8.59559 10.3777 8.80944 10.2918 9.03234 10.2918C9.25525 10.2918 9.4691 10.3777 9.62719 10.5307L11.8125 12.6089L5.3325 18.8929H3.375ZM23.625 18.8929H7.72031L12.9769 13.7754L17.5331 9.33964C17.6912 9.18665 17.9051 9.10078 18.128 9.10078C18.3509 9.10078 18.5647 9.18665 18.7228 9.33964L23.625 14.1121V18.8929Z" fill="#ABABAB"/>
</svg>
