<svg width="30" height="38" viewBox="0 0 30 38" fill="none" xmlns="http://www.w3.org/2000/svg">
<path fill-rule="evenodd" clip-rule="evenodd" d="M15.9876 36.8656L15.9693 36.8689L15.851 36.9273L15.8176 36.9339L15.7943 36.9273L15.676 36.8689C15.6582 36.8634 15.6449 36.8662 15.636 36.8773L15.6293 36.8939L15.601 37.6073L15.6093 37.6406L15.626 37.6623L15.7993 37.7856L15.8243 37.7923L15.8443 37.7856L16.0176 37.6623L16.0376 37.6356L16.0443 37.6073L16.016 36.8956C16.0115 36.8778 16.0021 36.8678 15.9876 36.8656ZM16.4293 36.6773L16.4076 36.6806L16.0993 36.8356L16.0826 36.8523L16.0776 36.8706L16.1076 37.5873L16.116 37.6073L16.1293 37.6189L16.4643 37.7739C16.4854 37.7795 16.5015 37.7751 16.5126 37.7606L16.5193 37.7373L16.4626 36.7139C16.4571 36.6939 16.446 36.6817 16.4293 36.6773ZM15.2376 36.6806C15.2303 36.6762 15.2215 36.6747 15.2131 36.6766C15.2048 36.6784 15.1974 36.6835 15.1926 36.6906L15.1826 36.7139L15.126 37.7373C15.1271 37.7573 15.1365 37.7706 15.1543 37.7773L15.1793 37.7739L15.5143 37.6189L15.531 37.6056L15.5376 37.5873L15.566 36.8706L15.561 36.8506L15.5443 36.8339L15.2376 36.6806Z" fill="#D1D1D1"/>
<path fill-rule="evenodd" clip-rule="evenodd" d="M17.0527 0.604575C18.106 -0.658758 20.1577 0.204575 19.991 1.84124L18.8144 13.3379H28.3327C28.6494 13.338 28.9595 13.4284 29.2267 13.5984C29.4939 13.7684 29.7071 14.011 29.8414 14.2978C29.9758 14.5846 30.0256 14.9037 29.9851 15.2178C29.9445 15.5319 29.8154 15.8279 29.6127 16.0712L12.946 36.0712C11.8927 37.3346 9.84104 36.4712 10.0077 34.8346L11.1844 23.3379H1.66604C1.34935 23.3378 1.03925 23.2474 0.77205 23.0775C0.504849 22.9075 0.291611 22.6649 0.157304 22.3781C0.0229977 22.0913 -0.0268172 21.7721 0.0136928 21.458C0.0542029 21.144 0.183361 20.8479 0.386043 20.6046L17.0527 0.604575Z" fill="#D1D1D1"/>
</svg>
