<svg width="23" height="25" viewBox="0 0 23 25" fill="none" xmlns="http://www.w3.org/2000/svg">
<path d="M9.1949 23.9367C8.66074 23.05 8.4389 22.0099 8.56476 20.9825C8.69062 19.955 9.15693 18.9992 9.8893 18.2677L13.7959 14.3622H2.69382C1.97937 14.3622 1.29419 14.646 0.789001 15.1512C0.283812 15.6564 0 16.3416 0 17.0561V18.1563C0 18.8412 0.215506 19.5092 0.611796 20.0671C2.40049 22.5778 5.29185 23.8588 9.1949 23.9367ZM15.5607 5.98626C15.5607 4.39861 14.93 2.87598 13.8074 1.75334C12.6847 0.630693 11.1621 0 9.57443 0C7.98677 0 6.46414 0.630693 5.3415 1.75334C4.21886 2.87598 3.58817 4.39861 3.58817 5.98626C3.58817 7.57392 4.21886 9.09654 5.3415 10.2192C6.46414 11.3418 7.98677 11.9725 9.57443 11.9725C11.1621 11.9725 12.6847 11.3418 13.8074 10.2192C14.93 9.09654 15.5607 7.57392 15.5607 5.98626ZM16.722 13.1279C17.3668 12.4833 18.2412 12.1212 19.1529 12.1213C20.0646 12.1214 20.9389 12.4837 21.5835 13.1285C22.2281 13.7732 22.5901 14.6476 22.59 15.5593C22.5899 16.471 22.2276 17.3453 21.5829 17.9899L15.5966 23.9762C14.9498 24.61 14.079 24.963 13.1734 24.9585C12.2678 24.9539 11.4006 24.5921 10.7602 23.9517C10.1198 23.3114 9.75804 22.4442 9.75347 21.5386C9.74889 20.633 10.1019 19.7621 10.7358 19.1153L16.722 13.1279ZM20.3138 14.3982C20.1614 14.2454 19.9804 14.1242 19.7811 14.0415C19.5818 13.9588 19.3682 13.9162 19.1524 13.9162C18.9367 13.9162 18.723 13.9588 18.5238 14.0415C18.3245 14.1242 18.1435 14.2454 17.9911 14.3982L15.6325 16.7567L17.9552 19.0794L20.3138 16.7208C20.4665 16.5685 20.5877 16.3875 20.6704 16.1882C20.7531 15.9889 20.7957 15.7752 20.7957 15.5595C20.7957 15.3437 20.7531 15.1301 20.6704 14.9308C20.5877 14.7315 20.4665 14.5505 20.3138 14.3982ZM15.5966 21.5817C15.6848 21.4995 15.7556 21.4003 15.8047 21.2902C15.8537 21.18 15.8801 21.0611 15.8823 20.9406C15.8844 20.82 15.8622 20.7002 15.817 20.5884C15.7719 20.4766 15.7047 20.3751 15.6194 20.2898C15.5341 20.2045 15.4326 20.1373 15.3208 20.0921C15.2089 20.047 15.0892 20.0248 14.9686 20.0269C14.8481 20.0291 14.7291 20.0554 14.619 20.1045C14.5089 20.1536 14.4097 20.2244 14.3275 20.3126L13.1303 21.5098C13.042 21.592 12.9713 21.6912 12.9222 21.8013C12.8731 21.9115 12.8467 22.0304 12.8446 22.1509C12.8425 22.2715 12.8647 22.3913 12.9098 22.5031C12.955 22.6149 13.0222 22.7164 13.1075 22.8017C13.1927 22.887 13.2943 22.9542 13.4061 22.9994C13.5179 23.0445 13.6377 23.0667 13.7582 23.0646C13.8788 23.0624 13.9977 23.0361 14.1079 22.987C14.218 22.9379 14.3171 22.8671 14.3994 22.7789L15.5966 21.5817Z" fill="#ABABAB"/>
</svg>
