<svg width="8" height="15" viewBox="0 0 8 15" fill="none" xmlns="http://www.w3.org/2000/svg">
<path d="M0.925657 0.177808L7.0127 7.04769C7.11961 7.16836 7.17944 7.3302 7.17944 7.49871C7.17944 7.66721 7.11961 7.82905 7.0127 7.94972L0.925657 14.8222C0.875857 14.8785 0.816315 14.9232 0.750545 14.9537C0.684774 14.9843 0.61411 15 0.542722 15C0.471334 15 0.400668 14.9843 0.334898 14.9537C0.269128 14.9232 0.209586 14.8785 0.159785 14.8222C0.0573206 14.7068 -4.3869e-05 14.5519 -4.3869e-05 14.3906C-4.3869e-05 14.2292 0.0573206 14.0743 0.159785 13.9589L5.88386 7.49871L0.159785 1.03977C0.057672 0.924439 0.000529766 0.769797 0.000529766 0.608791C0.000529766 0.447786 0.057672 0.293144 0.159785 0.177808C0.209586 0.121537 0.269128 0.0768117 0.334898 0.0462728C0.400668 0.0157338 0.471334 0 0.542722 0C0.61411 0 0.684774 0.0157338 0.750545 0.0462728C0.816315 0.0768117 0.875857 0.121537 0.925657 0.177808Z" fill="black"/>
</svg>
