<svg width="340" height="83" viewBox="0 0 340 83" fill="none" xmlns="http://www.w3.org/2000/svg">
<path d="M4.89844 3.10156V13H3.91406V4.11328H3.85938L1.52148 5.6582V4.66016L3.88672 3.10156H4.89844ZM10.7637 13.1367C8.64453 13.1367 7.41406 11.2637 7.41406 8.05078C7.41406 4.85156 8.6582 2.96484 10.7637 2.96484C12.8555 2.96484 14.0996 4.85156 14.0996 8.05078C14.0996 11.2637 12.8691 13.1367 10.7637 13.1367ZM10.7637 12.2617C12.2676 12.2617 13.1562 10.7305 13.1562 8.05078C13.1562 5.37109 12.2539 3.82617 10.7637 3.82617C9.25977 3.82617 8.37109 5.37109 8.37109 8.05078C8.37109 10.7305 9.25977 12.2617 10.7637 12.2617ZM18.9258 13.1367C16.8066 13.1367 15.5762 11.2637 15.5762 8.05078C15.5762 4.85156 16.8203 2.96484 18.9258 2.96484C21.0176 2.96484 22.2617 4.85156 22.2617 8.05078C22.2617 11.2637 21.0312 13.1367 18.9258 13.1367ZM18.9258 12.2617C20.4297 12.2617 21.3184 10.7305 21.3184 8.05078C21.3184 5.37109 20.416 3.82617 18.9258 3.82617C17.4219 3.82617 16.5332 5.37109 16.5332 8.05078C16.5332 10.7305 17.4219 12.2617 18.9258 12.2617Z" fill="black"/>
<line x1="33" y1="8.5" x2="340" y2="8.5" stroke="#D1D1D1"/>
<path d="M10.5586 35.9648C12.2812 35.9785 14.0176 37.127 14.0176 40.627C14.0176 43.9082 12.7871 46.1367 10.4219 46.1367C8.74023 46.1367 7.57812 45.0703 7.35938 43.498H8.33008C8.52148 44.5234 9.24609 45.2617 10.4219 45.2617C12.1172 45.2617 13.1016 43.7305 13.1016 41.0098H12.9922C12.4863 41.8848 11.5156 42.4316 10.4219 42.4316C8.68555 42.4316 7.26367 41.0781 7.26367 39.2188C7.26367 37.4277 8.5625 35.9512 10.5586 35.9648ZM10.5586 36.8262C9.20508 36.8262 8.19336 37.9062 8.20703 39.2051C8.20703 40.5312 9.20508 41.5703 10.5586 41.5703C11.9395 41.5703 13.0059 40.4219 12.9238 39.1504C12.8281 37.8516 11.8711 36.8262 10.5586 36.8262ZM18.9258 46.1367C16.8066 46.1367 15.5762 44.2637 15.5762 41.0508C15.5762 37.8516 16.8203 35.9648 18.9258 35.9648C21.0176 35.9648 22.2617 37.8516 22.2617 41.0508C22.2617 44.2637 21.0312 46.1367 18.9258 46.1367ZM18.9258 45.2617C20.4297 45.2617 21.3184 43.7305 21.3184 41.0508C21.3184 38.3711 20.416 36.8262 18.9258 36.8262C17.4219 36.8262 16.5332 38.3711 16.5332 41.0508C16.5332 43.7305 17.4219 45.2617 18.9258 45.2617Z" fill="black"/>
<line x1="33" y1="41.5" x2="340" y2="41.5" stroke="#D1D1D1"/>
<path d="M10.627 79.1367C8.63086 79.1367 7.19531 77.9746 7.19531 76.3887C7.19531 75.1445 8.08398 74.0781 9.25977 73.873V73.8184C8.24805 73.5586 7.56445 72.6426 7.56445 71.5625C7.56445 70.0723 8.87695 68.9648 10.627 68.9648C12.3633 68.9648 13.6895 70.0723 13.6895 71.5625C13.6895 72.6426 13.0059 73.5586 12.0078 73.8184V73.873C13.1699 74.0781 14.0586 75.1445 14.0723 76.3887C14.0586 77.9746 12.6094 79.1367 10.627 79.1367ZM10.627 78.2754C12.1035 78.2754 13.1016 77.4551 13.1016 76.334C13.1016 75.1855 12.0488 74.2969 10.627 74.2969C9.21875 74.2969 8.15234 75.1855 8.16602 76.334C8.15234 77.4551 9.15039 78.2754 10.627 78.2754ZM10.627 73.4766C11.8301 73.4766 12.7461 72.6973 12.7461 71.6172C12.7461 70.5645 11.8574 69.8125 10.627 69.8125C9.38281 69.8125 8.50781 70.5645 8.50781 71.6172C8.50781 72.6973 9.41016 73.4766 10.627 73.4766ZM18.9258 79.1367C16.8066 79.1367 15.5762 77.2637 15.5762 74.0508C15.5762 70.8516 16.8203 68.9648 18.9258 68.9648C21.0176 68.9648 22.2617 70.8516 22.2617 74.0508C22.2617 77.2637 21.0312 79.1367 18.9258 79.1367ZM18.9258 78.2617C20.4297 78.2617 21.3184 76.7305 21.3184 74.0508C21.3184 71.3711 20.416 69.8262 18.9258 69.8262C17.4219 69.8262 16.5332 71.3711 16.5332 74.0508C16.5332 76.7305 17.4219 78.2617 18.9258 78.2617Z" fill="black"/>
<line x1="33" y1="74.5" x2="340" y2="74.5" stroke="#D1D1D1"/>
<line x1="42.511" y1="40.7502" x2="110.511" y2="43.7502" stroke="#06A749" stroke-width="0.5"/>
<line x1="110.431" y1="43.7596" x2="180.431" y2="23.7596" stroke="#06A749" stroke-width="0.5"/>
<line x1="180.552" y1="23.7555" x2="250.552" y2="38.7556" stroke="#06A749" stroke-width="0.5"/>
<line x1="250.457" y1="38.7538" x2="318.457" y2="26.7538" stroke="#06A749" stroke-width="0.5"/>
<circle cx="42.5" cy="41" r="4" fill="#06A749"/>
<circle cx="110.5" cy="44" r="4" fill="#06A749"/>
<circle cx="180.5" cy="24" r="4" fill="#06A749"/>
<circle cx="318.5" cy="27" r="4" fill="#06A749"/>
<circle cx="250.5" cy="39" r="4" fill="#06A749"/>
</svg>
