<svg width="36" height="36" viewBox="0 0 36 36" fill="none" xmlns="http://www.w3.org/2000/svg">
<rect width="36" height="36" rx="18" fill="#72BBFF"/>
<path d="M15.5994 11.9848C17.2305 14.51 14.8551 17.168 15.061 18.3143C15.4252 20.3411 16.9771 21.3379 15.5202 23.3812C15.2827 23.7135 14.2059 24.4943 12.6698 23.5474C11.0229 22.534 8.85019 16.055 9.85576 13.3288C10.8993 10.5029 14.6018 10.4564 15.5994 11.9848ZM15.7261 11.4864C14.9977 10.988 15.2352 7.41628 17.278 8.66224C19.3208 9.90821 16.4545 11.9848 15.7261 11.4864Z" fill="#F9F9F9"/>
<path d="M14.1411 10.7904C13.3128 10.6166 12.8886 8.11426 14.7471 8.42705C16.6055 8.73984 14.9693 10.9641 14.1411 10.7904ZM12.222 10.7295C11.717 10.8512 9.71715 9.18296 11.5756 8.66164C13.3532 8.1577 12.727 10.6079 12.222 10.7295Z" fill="#F9F9F9"/>
<path d="M10.7004 11.2937C10.2914 11.5314 8.70434 10.4223 9.75145 9.72526C10.7495 9.09154 11.1094 11.0561 10.7004 11.2937ZM9.66964 12.2205C9.35879 12.6166 7.98446 11.967 8.52437 11.2858C9.06429 10.6045 9.9805 11.8244 9.66964 12.2205ZM20.1734 16.1416C18.4882 18.5498 20.9424 21.0846 20.7297 22.1778C20.3534 24.1106 18.75 25.0612 20.2552 27.0099C20.5006 27.3267 21.6132 28.0713 23.2002 27.1683C24.9018 26.2019 27.0549 19.5526 26.2106 17.314C25.2552 14.7839 21.2042 14.6841 20.1734 16.1416ZM20.0425 15.6663C20.7951 15.1911 20.5497 11.7848 18.4392 12.9731C16.3286 14.1613 19.2899 16.1416 20.0425 15.6663Z" fill="#F9F9F9"/>
<path d="M21.7088 14.1147C22.4518 13.961 22.8323 11.7472 21.1652 12.0239C19.498 12.3006 20.9658 14.2685 21.7088 14.1147ZM23.385 14.0994C23.838 14.207 25.6139 12.7311 23.9649 12.2699C22.3702 11.824 22.932 13.9917 23.385 14.0994ZM24.9887 14.6221C25.4418 14.8527 27.1995 13.7765 26.0398 13.1001C24.9344 12.4851 24.5357 14.3915 24.9887 14.6221ZM26.1938 15.483C26.5381 15.8673 28.0603 15.237 27.4623 14.5759C26.8462 13.9149 25.8314 15.0986 26.1938 15.483Z" fill="#F9F9F9"/>
</svg>
