<svg width="23" height="23" viewBox="0 0 23 23" fill="none" xmlns="http://www.w3.org/2000/svg">
<path fill-rule="evenodd" clip-rule="evenodd" d="M21.0834 11.5C21.0834 6.20708 16.793 1.91663 11.5001 1.91663C6.20721 1.91663 1.91675 6.20708 1.91675 11.5C1.91675 16.7928 6.20721 21.0833 11.5001 21.0833C16.793 21.0833 21.0834 16.7928 21.0834 11.5ZM11.5001 5.98954C11.6907 5.98954 11.8735 6.06527 12.0083 6.20006C12.1431 6.33485 12.2188 6.51767 12.2188 6.70829V12.4583C12.2188 12.6489 12.1431 12.8317 12.0083 12.9665C11.8735 13.1013 11.6907 13.177 11.5001 13.177C11.3095 13.177 11.1266 13.1013 10.9918 12.9665C10.8571 12.8317 10.7813 12.6489 10.7813 12.4583V6.70829C10.7813 6.51767 10.8571 6.33485 10.9918 6.20006C11.1266 6.06527 11.3095 5.98954 11.5001 5.98954ZM11.5001 16.2916C11.7542 16.2916 11.998 16.1907 12.1777 16.0109C12.3574 15.8312 12.4584 15.5875 12.4584 15.3333C12.4584 15.0791 12.3574 14.8354 12.1777 14.6556C11.998 14.4759 11.7542 14.375 11.5001 14.375C11.2459 14.375 11.0022 14.4759 10.8224 14.6556C10.6427 14.8354 10.5417 15.0791 10.5417 15.3333C10.5417 15.5875 10.6427 15.8312 10.8224 16.0109C11.0022 16.1907 11.2459 16.2916 11.5001 16.2916Z" fill="#FB594D"/>
</svg>
