<svg width="21" height="21" viewBox="0 0 21 21" fill="none" xmlns="http://www.w3.org/2000/svg">
<path d="M20.2958 2.01613C20.4266 2.14731 20.5001 2.32499 20.5001 2.51022C20.5001 2.69546 20.4266 2.87314 20.2958 3.00432L18.836 4.46561L16.0366 1.6662L17.4965 0.204908C17.6277 0.0737054 17.8057 0 17.9913 0C18.1768 0 18.3548 0.0737054 18.4861 0.204908L20.2958 2.01473V2.01613ZM17.8464 5.45381L15.047 2.65439L5.51093 12.192C5.4339 12.269 5.3759 12.363 5.34157 12.4663L4.21482 15.8452C4.19439 15.9068 4.19148 15.9729 4.20644 16.036C4.2214 16.0992 4.25362 16.1569 4.29951 16.2028C4.3454 16.2487 4.40315 16.281 4.4663 16.2959C4.52946 16.3109 4.59552 16.308 4.65712 16.2875L8.03597 15.1608C8.13922 15.1268 8.23315 15.0693 8.31031 14.9928L17.8464 5.45381Z" fill="white"/>
<path fill-rule="evenodd" clip-rule="evenodd" d="M0 18.1955C0 18.7524 0.2212 19.2864 0.614939 19.6802C1.00868 20.0739 1.5427 20.2951 2.09953 20.2951H17.4961C18.0529 20.2951 18.587 20.0739 18.9807 19.6802C19.3745 19.2864 19.5957 18.7524 19.5957 18.1955V9.79731C19.5957 9.6117 19.5219 9.43369 19.3907 9.30244C19.2594 9.17119 19.0814 9.09746 18.8958 9.09746C18.7102 9.09746 18.5322 9.17119 18.4009 9.30244C18.2697 9.43369 18.196 9.6117 18.196 9.79731V18.1955C18.196 18.3812 18.1222 18.5592 17.991 18.6904C17.8597 18.8217 17.6817 18.8954 17.4961 18.8954H2.09953C1.91392 18.8954 1.73592 18.8217 1.60467 18.6904C1.47342 18.5592 1.39969 18.3812 1.39969 18.1955V2.79878C1.39969 2.61317 1.47342 2.43516 1.60467 2.30391C1.73592 2.17266 1.91392 2.09892 2.09953 2.09892H11.1975C11.3831 2.09892 11.5611 2.02519 11.6924 1.89394C11.8236 1.76269 11.8974 1.58468 11.8974 1.39907C11.8974 1.21346 11.8236 1.03545 11.6924 0.904201C11.5611 0.772953 11.3831 0.699219 11.1975 0.699219H2.09953C1.5427 0.699219 1.00868 0.920422 0.614939 1.31417C0.2212 1.70791 0 2.24194 0 2.79878V18.1955Z" fill="white"/>
</svg>
